<?xml version="1.0" standalone="no"?>
<!DOCTYPE svg PUBLIC "-//W3C//DTD SVG 20010904//EN"
 "http://www.w3.org/TR/2001/REC-SVG-20010904/DTD/svg10.dtd">
<svg version="1.0" xmlns="http://www.w3.org/2000/svg"
 width="250.000000pt" height="250.000000pt" viewBox="0 0 250.000000 250.000000"
 preserveAspectRatio="xMidYMid meet">
<metadata>
Created by potrace 1.11, written by Peter Selinger 2001-2013
</metadata>
<g transform="translate(0.000000,250.000000) scale(0.100000,-0.100000)"
fill="#000000" stroke="none">
<path d="M1155 1931 c-250 -60 -447 -254 -513 -507 -25 -97 -26 -246 -1 -344
77 -304 343 -520 649 -529 265 -8 527 152 638 389 56 120 67 172 66 315 0 118
-3 138 -30 217 -41 118 -85 188 -175 278 -164 166 -406 235 -634 181z m264
-11 c126 -26 224 -71 314 -145 153 -126 240 -311 241 -510 1 -55 -2 -120 -7
-145 -21 -125 -115 -291 -215 -379 -65 -58 -180 -121 -267 -146 -80 -24 -232
-28 -315 -9 -149 34 -309 138 -395 258 -178 250 -178 561 0 811 142 199 414
311 644 265z"/>
<path d="M1152 1765 c-346 -110 -484 -537 -269 -837 222 -310 677 -293 882 32
101 159 105 378 13 553 -116 218 -388 327 -626 252z m282 -11 c183 -47 334
-201 376 -383 86 -369 -236 -710 -598 -635 -283 59 -464 347 -397 632 24 102
63 170 140 248 132 133 305 183 479 138z"/>
<path d="M1105 1452 c-95 -14 -142 -62 -130 -131 6 -36 5 -38 -35 -56 -75 -34
-116 -105 -89 -154 26 -45 61 -55 214 -56 147 -2 199 6 209 30 5 13 -14 15
-124 16 -137 2 -135 1 -162 13 -23 11 -23 64 0 92 9 12 36 31 60 43 44 23 48
33 33 89 -8 27 -7 36 10 53 27 27 46 24 52 -10 8 -40 33 -61 70 -61 37 0 77
24 77 46 0 16 -8 15 210 14 94 -1 159 -5 167 -12 21 -17 15 -56 -14 -83 -15
-14 -33 -25 -39 -25 -6 0 -19 -9 -29 -20 -14 -16 -16 -23 -7 -32 20 -20 14
-66 -11 -83 -21 -14 -117 -33 -117 -24 0 3 18 56 40 118 22 62 40 117 40 121
0 11 -89 5 -99 -6 -14 -16 -100 -273 -93 -278 4 -2 58 -3 119 -1 118 4 169 18
210 57 24 23 31 80 14 107 -7 11 1 21 32 41 61 39 81 66 80 106 -1 45 -26 72
-72 80 -29 6 -277 9 -377 5 -11 -1 -27 -12 -34 -26 l-14 -26 -20 25 c-18 21
-31 26 -86 28 -36 2 -74 2 -85 0z"/>
</g>
</svg>
